<?xml version="1.0" encoding="UTF-8"?>
<svg xmlns="http://www.w3.org/2000/svg" viewBox="0 0 1280 820" font-family="-apple-system, 'SF Pro Text', 'Inter', sans-serif">
  <!-- Catchem Live Feed mockup. Master-detail layout with buffered-banner. -->
  <rect width="1280" height="820" fill="#0e1014"/>

  <!-- Top bar (compact copy from Overview) -->
  <rect x="0" y="0" width="1280" height="56" fill="#161a22"/>
  <line x1="0" y1="56" x2="1280" y2="56" stroke="rgba(255,255,255,0.06)"/>
  <text x="24" y="35" fill="#e7ebf0" font-size="14" font-weight="700">catchem</text>
  <text x="124" y="35" fill="#9aa3b2" font-size="10">analyst workstation</text>
  <g font-size="11">
    <text x="220" y="35" fill="#9aa3b2">Overview</text>
    <rect x="282" y="20" width="78" height="22" rx="5" fill="rgba(95,179,255,0.12)"/>
    <text x="321" y="35" fill="#e7ebf0" text-anchor="middle">Live Feed</text>
    <text x="376" y="35" fill="#9aa3b2">Analyze</text>
    <text x="436" y="35" fill="#9aa3b2">Symbols</text>
    <text x="500" y="35" fill="#9aa3b2">Ops</text>
    <text x="540" y="35" fill="#9aa3b2">Settings</text>
  </g>
  <circle cx="1062" cy="32" r="5" fill="#4ade80"/>
  <text x="1074" y="35" fill="#9aa3b2" font-size="10">live · 0.4s lag</text>

  <!-- ─── Filter strip ────────────────────────────────────────────────────── -->
  <rect x="24" y="72" width="1232" height="44" rx="6" fill="#161a22" stroke="rgba(255,255,255,0.06)"/>
  <text x="40" y="96" fill="#9aa3b2" font-size="10">FILTERS</text>
  <g font-size="11">
    <rect x="100" y="84" width="62" height="20" rx="10" fill="rgba(95,179,255,0.15)" stroke="rgba(95,179,255,0.4)"/>
    <text x="131" y="98" fill="#e7ebf0" text-anchor="middle">finance</text>

    <rect x="170" y="84" width="68" height="20" rx="10" fill="#161a22" stroke="rgba(255,255,255,0.12)"/>
    <text x="204" y="98" fill="#9aa3b2" text-anchor="middle">earnings</text>

    <rect x="246" y="84" width="78" height="20" rx="10" fill="#161a22" stroke="rgba(255,255,255,0.12)"/>
    <text x="285" y="98" fill="#9aa3b2" text-anchor="middle">central_bank</text>

    <rect x="332" y="84" width="46" height="20" rx="10" fill="#161a22" stroke="rgba(255,255,255,0.12)"/>
    <text x="355" y="98" fill="#9aa3b2" text-anchor="middle">macro</text>

    <rect x="386" y="84" width="56" height="20" rx="10" fill="#161a22" stroke="rgba(255,255,255,0.12)"/>
    <text x="414" y="98" fill="#9aa3b2" text-anchor="middle">commodities</text>
  </g>

  <text x="970" y="98" fill="#9aa3b2" font-size="10">Sort: newest ▾</text>
  <rect x="1050" y="84" width="200" height="20" rx="4" fill="#0e1014" stroke="rgba(255,255,255,0.1)"/>
  <text x="1062" y="98" fill="#9aa3b2" font-size="10">⌕ Search title or domain…</text>

  <!-- ─── Buffered banner ──────────────────────────────────────────────────── -->
  <rect x="24" y="128" width="784" height="34" rx="6" fill="rgba(95,179,255,0.12)" stroke="rgba(95,179,255,0.32)"/>
  <text x="40" y="150" fill="#5fb3ff" font-size="11" font-weight="600">3 new captures ready ↑</text>
  <text x="178" y="150" fill="#9aa3b2" font-size="10">— inspector is open, list paused</text>
  <rect x="700" y="134" width="92" height="22" rx="4" fill="#5fb3ff"/>
  <text x="746" y="149" fill="#0b1018" font-size="11" font-weight="600" text-anchor="middle">Apply</text>

  <!-- ─── Master list (left) ──────────────────────────────────────────────── -->
  <rect x="24" y="174" width="784" height="612" rx="8" fill="#161a22" stroke="rgba(255,255,255,0.06)"/>

  <!-- selected row -->
  <rect x="32" y="186" width="768" height="62" rx="6" fill="rgba(95,179,255,0.08)" stroke="rgba(95,179,255,0.32)"/>
  <text x="44" y="208" fill="#e7ebf0" font-size="12" font-weight="600">Fed raises rates by 25 bps; Powell hawkish on inflation</text>
  <text x="44" y="226" fill="#9aa3b2" font-size="10">reuters.com · 3 min ago · 11 m publisher lag</text>
  <g font-size="9">
    <rect x="44" y="232" width="58" height="14" rx="3" fill="rgba(74,222,128,0.18)"/>
    <text x="73" y="243" fill="#4ade80" text-anchor="middle">0.91 high</text>
    <rect x="108" y="232" width="78" height="14" rx="3" fill="rgba(95,179,255,0.18)"/>
    <text x="147" y="243" fill="#5fb3ff" text-anchor="middle">central_bank</text>
    <rect x="192" y="232" width="46" height="14" rx="3" fill="rgba(95,179,255,0.12)"/>
    <text x="215" y="243" fill="#5fb3ff" text-anchor="middle">rates</text>
    <rect x="244" y="232" width="46" height="14" rx="3" fill="rgba(95,179,255,0.12)"/>
    <text x="267" y="243" fill="#5fb3ff" text-anchor="middle">macro</text>
  </g>
  <text x="700" y="226" fill="#9aa3b2" font-size="9">$AAPL · $MSFT · EUR/USD</text>

  <!-- other rows -->
  <g font-size="11">
    <line x1="32" y1="258" x2="800" y2="258" stroke="rgba(255,255,255,0.06)"/>
    <text x="44" y="282" fill="#e7ebf0">Nvidia Q4 earnings beat; raises Q1 outlook</text>
    <text x="44" y="298" fill="#9aa3b2" font-size="10">cnbc.com · 12 min ago · 0.88 · earnings · equity</text>

    <line x1="32" y1="318" x2="800" y2="318" stroke="rgba(255,255,255,0.06)"/>
    <text x="44" y="342" fill="#e7ebf0">OPEC+ extends voluntary cuts through Q2</text>
    <text x="44" y="358" fill="#9aa3b2" font-size="10">bloomberg.com · 22 min ago · 0.84 · supply_demand</text>

    <line x1="32" y1="378" x2="800" y2="378" stroke="rgba(255,255,255,0.06)"/>
    <text x="44" y="402" fill="#e7ebf0">Apple unveils new iPhone Pro lineup at WWDC</text>
    <text x="44" y="418" fill="#9aa3b2" font-size="10">apple.com · 38 min ago · 0.72 · product · equity</text>

    <line x1="32" y1="438" x2="800" y2="438" stroke="rgba(255,255,255,0.06)"/>
    <text x="44" y="462" fill="#e7ebf0">SEC settles with mid-cap broker over best-execution</text>
    <text x="44" y="478" fill="#9aa3b2" font-size="10">sec.gov · 51 min ago · 0.69 · regulatory · litigation</text>

    <line x1="32" y1="498" x2="800" y2="498" stroke="rgba(255,255,255,0.06)"/>
    <text x="44" y="522" fill="#9aa3b2" opacity="0.6">Local zoning hearing approves mixed-use development</text>
    <text x="44" y="538" fill="#9aa3b2" font-size="10" opacity="0.6">cityherald.com · 1h ago · non-finance</text>

    <line x1="32" y1="558" x2="800" y2="558" stroke="rgba(255,255,255,0.06)"/>
    <text x="44" y="582" fill="#e7ebf0">Treasury yields fall after weak ISM print</text>
    <text x="44" y="598" fill="#9aa3b2" font-size="10">ft.com · 1h ago · 0.78 · macro · rates</text>

    <line x1="32" y1="618" x2="800" y2="618" stroke="rgba(255,255,255,0.06)"/>
    <text x="44" y="642" fill="#e7ebf0">Bitcoin tops $66k as ETF inflows accelerate</text>
    <text x="44" y="658" fill="#9aa3b2" font-size="10">coindesk.com · 1h ago · 0.74 · crypto</text>

    <line x1="32" y1="678" x2="800" y2="678" stroke="rgba(255,255,255,0.06)"/>
    <text x="44" y="702" fill="#e7ebf0">Goldman lifts Brent forecast on supply discipline</text>
    <text x="44" y="718" fill="#9aa3b2" font-size="10">marketwatch.com · 2h ago · 0.66 · commodities</text>
  </g>

  <!-- ─── Inspector drawer (right) ────────────────────────────────────────── -->
  <rect x="824" y="128" width="432" height="658" rx="8" fill="#161a22" stroke="rgba(255,255,255,0.1)"/>
  <text x="844" y="152" fill="#9aa3b2" font-size="10">INSPECTOR · capture_id 4b18…d9e2</text>

  <!-- tabs -->
  <rect x="844" y="164" width="72" height="22" rx="4" fill="rgba(95,179,255,0.18)"/>
  <text x="880" y="178" fill="#e7ebf0" font-size="10" text-anchor="middle">Summary</text>
  <text x="934" y="178" fill="#9aa3b2" font-size="10">Evidence</text>
  <text x="996" y="178" fill="#9aa3b2" font-size="10">Metadata</text>
  <text x="1066" y="178" fill="#9aa3b2" font-size="10">Raw JSON</text>

  <!-- Score block -->
  <rect x="844" y="200" width="392" height="72" rx="6" fill="#0e1014" stroke="rgba(255,255,255,0.06)"/>
  <text x="860" y="222" fill="#9aa3b2" font-size="9">FINANCE RELEVANCE</text>
  <text x="860" y="256" fill="#4ade80" font-size="36" font-weight="700">0.91</text>
  <text x="930" y="256" fill="#9aa3b2" font-size="11">/ 1.0</text>
  <rect x="1010" y="218" width="68" height="20" rx="10" fill="rgba(74,222,128,0.2)"/>
  <text x="1044" y="232" fill="#4ade80" font-size="10" text-anchor="middle">high</text>

  <!-- Title + summary -->
  <text x="844" y="294" fill="#e7ebf0" font-size="12" font-weight="600">Fed raises rates by 25 bps; Powell hawkish on inflation</text>
  <text x="844" y="316" fill="#9aa3b2" font-size="10">reuters.com · published 14 min ago · ingested 3 min ago</text>

  <!-- Asset classes + reasons -->
  <text x="844" y="346" fill="#9aa3b2" font-size="9">ASSET CLASSES</text>
  <g font-size="10">
    <rect x="844" y="354" width="48" height="18" rx="9" fill="rgba(95,179,255,0.18)"/>
    <text x="868" y="367" fill="#5fb3ff" text-anchor="middle">rates</text>
    <rect x="898" y="354" width="54" height="18" rx="9" fill="rgba(95,179,255,0.18)"/>
    <text x="925" y="367" fill="#5fb3ff" text-anchor="middle">macro</text>
    <rect x="958" y="354" width="64" height="18" rx="9" fill="rgba(95,179,255,0.18)"/>
    <text x="990" y="367" fill="#5fb3ff" text-anchor="middle">indices</text>
  </g>
  <text x="844" y="396" fill="#9aa3b2" font-size="9">IMPACT REASONS</text>
  <g font-size="10">
    <rect x="844" y="404" width="84" height="18" rx="9" fill="rgba(251,191,36,0.18)"/>
    <text x="886" y="417" fill="#fbbf24" text-anchor="middle">central_bank</text>
    <rect x="934" y="404" width="62" height="18" rx="9" fill="rgba(251,191,36,0.18)"/>
    <text x="965" y="417" fill="#fbbf24" text-anchor="middle">inflation</text>
  </g>

  <!-- Symbols -->
  <text x="844" y="446" fill="#9aa3b2" font-size="9">SYMBOLS</text>
  <g font-size="11">
    <text x="844" y="466" fill="#e7ebf0">$AAPL · $MSFT · EUR/USD · ^GSPC</text>
  </g>

  <!-- Entities -->
  <text x="844" y="490" fill="#9aa3b2" font-size="9">ENTITIES</text>
  <text x="844" y="510" fill="#e7ebf0" font-size="11">Federal Reserve · FOMC · Powell · Apple · Microsoft</text>

  <!-- Evidence sentence -->
  <text x="844" y="540" fill="#9aa3b2" font-size="9">EVIDENCE · top sentence</text>
  <rect x="844" y="548" width="392" height="56" rx="6" fill="#0e1014" stroke="rgba(255,255,255,0.06)"/>
  <text x="858" y="568" fill="#e7ebf0" font-size="10">"The Federal Reserve raised its benchmark interest</text>
  <text x="858" y="582" fill="#e7ebf0" font-size="10">rate by 25 basis points on Wednesday, citing</text>
  <text x="858" y="596" fill="#e7ebf0" font-size="10">persistent inflation pressures and a tight labor market."</text>

  <!-- Production-safe stamp + actions -->
  <line x1="824" y1="638" x2="1256" y2="638" stroke="rgba(255,255,255,0.06)"/>
  <text x="844" y="664" fill="#9aa3b2" font-size="9">PRODUCTION-SAFE · diagnostic disabled · stub-zero-shot/v1</text>
  <rect x="844" y="676" width="118" height="28" rx="6" fill="#0e1014" stroke="rgba(255,255,255,0.1)"/>
  <text x="903" y="694" fill="#e7ebf0" font-size="11" text-anchor="middle">Copy summary</text>
  <rect x="970" y="676" width="118" height="28" rx="6" fill="#0e1014" stroke="rgba(255,255,255,0.1)"/>
  <text x="1029" y="694" fill="#e7ebf0" font-size="11" text-anchor="middle">Copy raw JSON</text>
  <rect x="1096" y="676" width="140" height="28" rx="6" fill="rgba(95,179,255,0.12)" stroke="rgba(95,179,255,0.4)"/>
  <text x="1166" y="694" fill="#5fb3ff" font-size="11" text-anchor="middle">Open in Analyze →</text>

  <!-- ─── Bottom status strip ───────────────────────────────────────────── -->
  <rect x="0" y="794" width="1280" height="26" fill="#161a22"/>
  <line x1="0" y1="794" x2="1280" y2="794" stroke="rgba(255,255,255,0.06)"/>
  <g font-size="9">
    <text x="24" y="810" fill="#9aa3b2">sidecar healthy · pid 4127 · :8087</text>
    <text x="280" y="810" fill="#9aa3b2">mode: production_safe</text>
    <text x="440" y="810" fill="#9aa3b2">stubs on</text>
    <text x="540" y="810" fill="#9aa3b2">214 records</text>
    <text x="660" y="810" fill="#4ade80">all 49 feeds healthy</text>
    <text x="1140" y="810" fill="#9aa3b2" text-anchor="end">last new arrival: 3 min ago</text>
  </g>
</svg>
