<?xml version="1.0" encoding="UTF-8"?>
<svg xmlns="http://www.w3.org/2000/svg" viewBox="0 0 1280 820" font-family="-apple-system, 'SF Pro Text', 'Inter', sans-serif">
  <!-- Catchem Analyze mockup. The star of the app per the prompt. -->
  <rect width="1280" height="820" fill="#0e1014"/>

  <!-- Top bar -->
  <rect x="0" y="0" width="1280" height="56" fill="#161a22"/>
  <line x1="0" y1="56" x2="1280" y2="56" stroke="rgba(255,255,255,0.06)"/>
  <text x="24" y="35" fill="#e7ebf0" font-size="14" font-weight="700">fusion_stack</text>
  <text x="124" y="35" fill="#9aa3b2" font-size="10">analyst workstation</text>
  <g font-size="11">
    <text x="220" y="35" fill="#9aa3b2">Overview</text>
    <text x="282" y="35" fill="#9aa3b2">Live Feed</text>
    <rect x="350" y="20" width="72" height="22" rx="5" fill="rgba(95,179,255,0.12)"/>
    <text x="386" y="35" fill="#e7ebf0" text-anchor="middle">Analyze</text>
    <text x="436" y="35" fill="#9aa3b2">Symbols</text>
    <text x="500" y="35" fill="#9aa3b2">Ops</text>
    <text x="540" y="35" fill="#9aa3b2">Settings</text>
  </g>
  <circle cx="1062" cy="32" r="5" fill="#4ade80"/>
  <text x="1074" y="35" fill="#9aa3b2" font-size="10">live</text>
  <rect x="1224" y="20" width="34" height="22" rx="4" fill="#161a22" stroke="rgba(255,255,255,0.1)"/>
  <text x="1241" y="35" fill="#9aa3b2" font-size="10" text-anchor="middle">⌘K</text>

  <!-- Page title -->
  <text x="24" y="92" fill="#e7ebf0" font-size="20" font-weight="700">Analyze</text>
  <text x="24" y="114" fill="#9aa3b2" font-size="11">Paste an article, drop a file, or load a sample. Result appears in &lt; 3 s on stub mode.</text>

  <!-- ─── Left panel: input ─────────────────────────────────────────────── -->
  <rect x="24" y="132" width="544" height="652" rx="8" fill="#161a22" stroke="rgba(255,255,255,0.06)"/>

  <!-- Tab strip: paste / upload / sample -->
  <rect x="40" y="148" width="74" height="28" rx="6" fill="rgba(95,179,255,0.18)"/>
  <text x="77" y="167" fill="#e7ebf0" font-size="11" text-anchor="middle">Paste</text>
  <rect x="120" y="148" width="86" height="28" rx="6" fill="#0e1014" stroke="rgba(255,255,255,0.08)"/>
  <text x="163" y="167" fill="#9aa3b2" font-size="11" text-anchor="middle">Upload file</text>
  <rect x="212" y="148" width="118" height="28" rx="6" fill="#0e1014" stroke="rgba(255,255,255,0.08)"/>
  <text x="271" y="167" fill="#9aa3b2" font-size="11" text-anchor="middle">Sample library ▾</text>

  <!-- Title field -->
  <text x="40" y="200" fill="#9aa3b2" font-size="10">TITLE</text>
  <rect x="40" y="208" width="512" height="32" rx="6" fill="#0e1014" stroke="rgba(255,255,255,0.1)"/>
  <text x="52" y="228" fill="#e7ebf0" font-size="11">Fed raises rates by 25 bps; Powell hawkish on inflation</text>

  <!-- Domain + URL row -->
  <text x="40" y="260" fill="#9aa3b2" font-size="10">DOMAIN · optional</text>
  <rect x="40" y="268" width="232" height="32" rx="6" fill="#0e1014" stroke="rgba(255,255,255,0.1)"/>
  <text x="52" y="288" fill="#e7ebf0" font-size="11">reuters.com</text>

  <text x="284" y="260" fill="#9aa3b2" font-size="10">URL · optional</text>
  <rect x="284" y="268" width="268" height="32" rx="6" fill="#0e1014" stroke="rgba(255,255,255,0.1)"/>
  <text x="296" y="288" fill="#e7ebf0" font-size="11">https://reuters.com/markets/fed-25bps…</text>

  <!-- Body textarea -->
  <text x="40" y="320" fill="#9aa3b2" font-size="10">ARTICLE BODY</text>
  <rect x="40" y="328" width="512" height="372" rx="6" fill="#0e1014" stroke="rgba(255,255,255,0.1)"/>
  <g font-size="11" fill="#e7ebf0">
    <text x="52" y="350">The Federal Reserve raised its benchmark interest</text>
    <text x="52" y="368">rate by 25 basis points on Wednesday, citing</text>
    <text x="52" y="386">persistent inflation pressures and a tight labor</text>
    <text x="52" y="404">market. Treasury yields jumped after the decision:</text>
    <text x="52" y="422">the 2-year yield climbed 8 bps to 4.78% and the</text>
    <text x="52" y="440">10-year added 5 bps to 4.41%.</text>

    <text x="52" y="468">Chair Powell said the central bank remains</text>
    <text x="52" y="486">data-dependent and would continue to assess</text>
    <text x="52" y="504">incoming inflation and labor-market readings</text>
    <text x="52" y="522">before deciding on further moves.</text>

    <text x="52" y="550">Equities sold off on the news. Apple (AAPL) fell</text>
    <text x="52" y="568">2.1% and Microsoft (MSFT) lost 1.8%. The S&amp;P 500</text>
    <text x="52" y="586">closed down 0.9%. The dollar strengthened broadly,</text>
    <text x="52" y="604">with EUR/USD slipping below 1.06.</text>
  </g>

  <!-- Format hint + action row -->
  <text x="40" y="720" fill="#9aa3b2" font-size="10">Accepts .txt · .md · .html · .jsonl · .json · 5 MB max</text>
  <rect x="40" y="734" width="142" height="36" rx="6" fill="#0e1014" stroke="rgba(255,255,255,0.1)"/>
  <text x="111" y="757" fill="#9aa3b2" font-size="11" text-anchor="middle">Clear</text>
  <rect x="396" y="734" width="156" height="36" rx="6" fill="#5fb3ff"/>
  <text x="474" y="757" fill="#0b1018" font-size="12" font-weight="600" text-anchor="middle">Analyze →  ⌘↩</text>

  <!-- ─── Right panel: result ──────────────────────────────────────────── -->
  <rect x="584" y="132" width="672" height="652" rx="8" fill="#161a22" stroke="rgba(255,255,255,0.06)"/>

  <!-- Tab strip: Summary / Evidence / Metadata / Raw -->
  <rect x="600" y="148" width="72" height="28" rx="6" fill="rgba(95,179,255,0.18)"/>
  <text x="636" y="167" fill="#e7ebf0" font-size="11" text-anchor="middle">Summary</text>
  <text x="694" y="167" fill="#9aa3b2" font-size="11">Evidence (3)</text>
  <text x="780" y="167" fill="#9aa3b2" font-size="11">Metadata</text>
  <text x="858" y="167" fill="#9aa3b2" font-size="11">Raw JSON</text>

  <!-- Score block -->
  <rect x="600" y="196" width="640" height="118" rx="8" fill="#0e1014" stroke="rgba(255,255,255,0.06)"/>
  <text x="616" y="220" fill="#9aa3b2" font-size="10">FINANCE RELEVANCE</text>
  <text x="616" y="276" fill="#4ade80" font-size="56" font-weight="700">0.91</text>
  <text x="736" y="276" fill="#9aa3b2" font-size="16">/ 1.0</text>

  <!-- band visual -->
  <rect x="616" y="288" width="412" height="8" rx="4" fill="#0e1014" stroke="rgba(255,255,255,0.1)"/>
  <rect x="616" y="288" width="375" height="8" rx="4" fill="#4ade80"/>
  <text x="616" y="308" fill="#9aa3b2" font-size="9">low (0–0.34)    medium (0.35–0.64)    <tspan fill="#4ade80" font-weight="600">high (0.65–1.0)</tspan></text>

  <rect x="1064" y="214" width="80" height="28" rx="14" fill="rgba(74,222,128,0.18)" stroke="rgba(74,222,128,0.4)"/>
  <text x="1104" y="232" fill="#4ade80" font-size="12" font-weight="700" text-anchor="middle">HIGH</text>
  <text x="1064" y="262" fill="#9aa3b2" font-size="9">band</text>
  <text x="1064" y="278" fill="#9aa3b2" font-size="9">processing: 2.4 s</text>
  <text x="1064" y="292" fill="#9aa3b2" font-size="9">capture: 4b18…d9e2</text>

  <!-- Asset classes + reasons -->
  <rect x="600" y="330" width="312" height="106" rx="8" fill="#0e1014" stroke="rgba(255,255,255,0.06)"/>
  <text x="616" y="354" fill="#9aa3b2" font-size="10">ASSET CLASSES</text>
  <g font-size="10">
    <rect x="616" y="364" width="48" height="20" rx="10" fill="rgba(95,179,255,0.18)"/>
    <text x="640" y="378" fill="#5fb3ff" text-anchor="middle">rates</text>
    <rect x="670" y="364" width="54" height="20" rx="10" fill="rgba(95,179,255,0.18)"/>
    <text x="697" y="378" fill="#5fb3ff" text-anchor="middle">macro</text>
    <rect x="730" y="364" width="64" height="20" rx="10" fill="rgba(95,179,255,0.18)"/>
    <text x="762" y="378" fill="#5fb3ff" text-anchor="middle">indices</text>
    <rect x="800" y="364" width="42" height="20" rx="10" fill="rgba(95,179,255,0.18)"/>
    <text x="821" y="378" fill="#5fb3ff" text-anchor="middle">FX</text>
  </g>
  <text x="616" y="410" fill="#9aa3b2" font-size="10">REASON CODES</text>
  <g font-size="10">
    <rect x="616" y="418" width="84" height="20" rx="10" fill="rgba(251,191,36,0.18)"/>
    <text x="658" y="432" fill="#fbbf24" text-anchor="middle">central_bank</text>
    <rect x="706" y="418" width="62" height="20" rx="10" fill="rgba(251,191,36,0.18)"/>
    <text x="737" y="432" fill="#fbbf24" text-anchor="middle">inflation</text>
  </g>

  <!-- Sentiment -->
  <rect x="928" y="330" width="312" height="106" rx="8" fill="#0e1014" stroke="rgba(255,255,255,0.06)"/>
  <text x="944" y="354" fill="#9aa3b2" font-size="10">SENTIMENT</text>
  <rect x="944" y="364" width="72" height="22" rx="11" fill="rgba(248,113,113,0.18)"/>
  <text x="980" y="380" fill="#f87171" font-size="11" font-weight="600" text-anchor="middle">negative</text>
  <text x="1024" y="380" fill="#9aa3b2" font-size="11">score −0.42</text>
  <text x="944" y="410" fill="#9aa3b2" font-size="10">PROCESSING MODE</text>
  <text x="944" y="428" fill="#e7ebf0" font-size="11">production_safe · stubs on</text>

  <!-- Symbols + entities -->
  <rect x="600" y="452" width="640" height="92" rx="8" fill="#0e1014" stroke="rgba(255,255,255,0.06)"/>
  <text x="616" y="476" fill="#9aa3b2" font-size="10">SYMBOLS</text>
  <text x="616" y="498" fill="#e7ebf0" font-size="12">$AAPL · $MSFT · EUR/USD · ^GSPC</text>
  <text x="616" y="518" fill="#9aa3b2" font-size="10">ENTITIES</text>
  <text x="616" y="538" fill="#e7ebf0" font-size="11">Federal Reserve · FOMC · Powell · Apple · Microsoft</text>

  <!-- Evidence -->
  <rect x="600" y="560" width="640" height="160" rx="8" fill="#0e1014" stroke="rgba(255,255,255,0.06)"/>
  <text x="616" y="584" fill="#9aa3b2" font-size="10">EVIDENCE · 3 sentences</text>
  <g font-size="11">
    <text x="616" y="608" fill="#5fb3ff">1.</text>
    <text x="636" y="608" fill="#e7ebf0">"The Federal Reserve raised its benchmark interest rate by 25 basis points,</text>
    <text x="636" y="624" fill="#e7ebf0">citing persistent inflation pressures and a tight labor market."</text>

    <text x="616" y="654" fill="#5fb3ff">2.</text>
    <text x="636" y="654" fill="#e7ebf0">"Apple (AAPL) fell 2.1% and Microsoft (MSFT) lost 1.8%. The S&amp;P 500</text>
    <text x="636" y="670" fill="#e7ebf0">closed down 0.9%."</text>

    <text x="616" y="700" fill="#5fb3ff">3.</text>
    <text x="636" y="700" fill="#e7ebf0">"Bond markets are now pricing roughly two more hikes by year-end."</text>
  </g>

  <!-- Actions -->
  <rect x="600" y="736" width="140" height="32" rx="6" fill="#0e1014" stroke="rgba(255,255,255,0.1)"/>
  <text x="670" y="756" fill="#e7ebf0" font-size="11" text-anchor="middle">Copy summary</text>
  <rect x="748" y="736" width="140" height="32" rx="6" fill="#0e1014" stroke="rgba(255,255,255,0.1)"/>
  <text x="818" y="756" fill="#e7ebf0" font-size="11" text-anchor="middle">Copy raw JSON</text>
  <rect x="896" y="736" width="140" height="32" rx="6" fill="#0e1014" stroke="rgba(255,255,255,0.1)"/>
  <text x="966" y="756" fill="#e7ebf0" font-size="11" text-anchor="middle">Save to disk</text>
  <rect x="1100" y="736" width="140" height="32" rx="6" fill="rgba(95,179,255,0.12)" stroke="rgba(95,179,255,0.4)"/>
  <text x="1170" y="756" fill="#5fb3ff" font-size="11" text-anchor="middle">View in Live Feed →</text>

  <!-- Status bar -->
  <rect x="0" y="794" width="1280" height="26" fill="#161a22"/>
  <line x1="0" y1="794" x2="1280" y2="794" stroke="rgba(255,255,255,0.06)"/>
  <text x="24" y="810" fill="#9aa3b2" font-size="9">sidecar healthy · :8087</text>
  <text x="240" y="810" fill="#9aa3b2" font-size="9">mode: production_safe</text>
  <text x="420" y="810" fill="#9aa3b2" font-size="9">stub-zero-shot/v1 · stub-sentiment/v1</text>
  <text x="1140" y="810" fill="#9aa3b2" font-size="9" text-anchor="end">last analyze: 2 s ago · result cached</text>
</svg>
