<?xml version="1.0" encoding="UTF-8"?>
<svg xmlns="http://www.w3.org/2000/svg" viewBox="0 0 1280 820" font-family="-apple-system, 'SF Pro Text', 'Inter', sans-serif">
  <!-- Catchem Model Controls mockup. mode + sidecar + guards + log tail -->
  <rect width="1280" height="820" fill="#0e1014"/>

  <!-- Top bar -->
  <rect x="0" y="0" width="1280" height="56" fill="#161a22"/>
  <line x1="0" y1="56" x2="1280" y2="56" stroke="rgba(255,255,255,0.06)"/>
  <text x="24" y="35" fill="#e7ebf0" font-size="14" font-weight="700">fusion_stack</text>
  <text x="124" y="35" fill="#9aa3b2" font-size="10">analyst workstation</text>
  <g font-size="11">
    <text x="220" y="35" fill="#9aa3b2">Overview</text>
    <text x="282" y="35" fill="#9aa3b2">Live Feed</text>
    <text x="358" y="35" fill="#9aa3b2">Analyze</text>
    <text x="418" y="35" fill="#9aa3b2">Symbols</text>
    <rect x="486" y="20" width="120" height="22" rx="5" fill="rgba(95,179,255,0.12)"/>
    <text x="546" y="35" fill="#e7ebf0" text-anchor="middle">Model Controls</text>
    <text x="618" y="35" fill="#9aa3b2">Ops</text>
    <text x="658" y="35" fill="#9aa3b2">Settings</text>
    <text x="712" y="35" fill="#9aa3b2">Help</text>
  </g>
  <circle cx="1062" cy="32" r="5" fill="#4ade80"/>
  <text x="1074" y="35" fill="#9aa3b2" font-size="10">live</text>

  <!-- Page title -->
  <text x="24" y="92" fill="#e7ebf0" font-size="20" font-weight="700">Model Controls</text>
  <text x="24" y="114" fill="#9aa3b2" font-size="11">Pipeline mode, ML path, sidecar lifecycle, guard state, log tail.</text>

  <!-- ─── Top row: 4 cards ───────────────────────────────────────────────── -->

  <!-- Mode card -->
  <rect x="24" y="132" width="300" height="170" rx="8" fill="#161a22" stroke="rgba(255,255,255,0.06)"/>
  <text x="40" y="156" fill="#9aa3b2" font-size="10">PIPELINE MODE</text>
  <rect x="40" y="166" width="120" height="28" rx="14" fill="rgba(74,222,128,0.18)" stroke="rgba(74,222,128,0.4)"/>
  <text x="100" y="185" fill="#4ade80" font-size="12" font-weight="700" text-anchor="middle">production_safe</text>
  <text x="40" y="220" fill="#9aa3b2" font-size="10">DIAGNOSTIC</text>
  <text x="40" y="238" fill="#e7ebf0" font-size="11">disabled · not exposed to UI</text>
  <text x="40" y="262" fill="#9aa3b2" font-size="10">USE ML STUBS</text>
  <text x="40" y="280" fill="#e7ebf0" font-size="11">true · zero-shot + sentiment stubs</text>

  <!-- Sidecar card -->
  <rect x="340" y="132" width="300" height="170" rx="8" fill="#161a22" stroke="rgba(255,255,255,0.06)"/>
  <text x="356" y="156" fill="#9aa3b2" font-size="10">SIDECAR</text>
  <circle cx="362" cy="178" r="5" fill="#4ade80"/>
  <text x="374" y="182" fill="#e7ebf0" font-size="12" font-weight="600">healthy</text>
  <text x="448" y="182" fill="#9aa3b2" font-size="11">pid 4127 · :8087</text>
  <text x="356" y="208" fill="#9aa3b2" font-size="10">UPTIME</text>
  <text x="356" y="226" fill="#e7ebf0" font-size="11">2 h 41 min</text>
  <text x="356" y="252" fill="#9aa3b2" font-size="10">CWD</text>
  <text x="356" y="270" fill="#e7ebf0" font-size="11">~/Library/Application Support/Catchem</text>
  <rect x="528" y="262" width="96" height="28" rx="6" fill="#0e1014" stroke="rgba(255,255,255,0.1)"/>
  <text x="576" y="282" fill="#e7ebf0" font-size="11" text-anchor="middle">Restart ⌘R</text>

  <!-- Models card -->
  <rect x="656" y="132" width="300" height="170" rx="8" fill="#161a22" stroke="rgba(255,255,255,0.06)"/>
  <text x="672" y="156" fill="#9aa3b2" font-size="10">MODEL VERSIONS</text>
  <g font-size="11">
    <text x="672" y="180" fill="#9aa3b2">zero_shot</text>
    <text x="924" y="180" fill="#e7ebf0" text-anchor="end">stub-zero-shot/v1</text>
    <text x="672" y="200" fill="#9aa3b2">sentiment</text>
    <text x="924" y="200" fill="#e7ebf0" text-anchor="end">stub-sentiment/v1</text>
    <text x="672" y="220" fill="#9aa3b2">embedder</text>
    <text x="924" y="220" fill="#e7ebf0" text-anchor="end">stub-embedder/v1</text>
    <text x="672" y="240" fill="#9aa3b2">cross_encoder</text>
    <text x="924" y="240" fill="#e7ebf0" text-anchor="end">stub-ce/v1</text>
    <text x="672" y="260" fill="#9aa3b2">commit_sha</text>
    <text x="924" y="260" fill="#e7ebf0" text-anchor="end">b01d80f</text>
    <text x="672" y="280" fill="#9aa3b2">branch</text>
    <text x="924" y="280" fill="#e7ebf0" text-anchor="end">feature/catchem-hardening</text>
  </g>

  <!-- Guards card -->
  <rect x="972" y="132" width="284" height="170" rx="8" fill="#161a22" stroke="rgba(255,255,255,0.06)"/>
  <text x="988" y="156" fill="#9aa3b2" font-size="10">NEWSIMPACT GUARDS</text>
  <g font-size="11">
    <text x="988" y="180" fill="#9aa3b2">release_gate_passed</text>
    <rect x="1170" y="168" width="68" height="16" rx="8" fill="rgba(248,113,113,0.18)"/>
    <text x="1204" y="180" fill="#f87171" font-size="10" font-weight="600" text-anchor="middle">false</text>

    <text x="988" y="206" fill="#9aa3b2">quarantine_state</text>
    <rect x="1170" y="194" width="68" height="16" rx="8" fill="rgba(251,191,36,0.18)"/>
    <text x="1204" y="206" fill="#fbbf24" font-size="10" font-weight="600" text-anchor="middle">active</text>

    <text x="988" y="232" fill="#9aa3b2">safe_to_publish</text>
    <rect x="1170" y="220" width="68" height="16" rx="8" fill="rgba(74,222,128,0.18)"/>
    <text x="1204" y="232" fill="#4ade80" font-size="10" font-weight="600" text-anchor="middle">true</text>

    <text x="988" y="258" fill="#9aa3b2">safe_to_promote</text>
    <rect x="1170" y="246" width="68" height="16" rx="8" fill="rgba(248,113,113,0.18)"/>
    <text x="1204" y="258" fill="#f87171" font-size="10" font-weight="600" text-anchor="middle">false</text>

    <text x="988" y="284" fill="#9aa3b2">fusion_verdict_class</text>
    <text x="1238" y="284" fill="#e7ebf0" text-anchor="end">read_only_guarded</text>
  </g>

  <!-- ─── Bottom row: poller + log tail ─────────────────────────────────── -->

  <!-- Poller health -->
  <rect x="24" y="320" width="616" height="306" rx="8" fill="#161a22" stroke="rgba(255,255,255,0.06)"/>
  <text x="40" y="344" fill="#9aa3b2" font-size="10">NEWS POLLER · 49 feeds · 10 s interval</text>
  <g font-size="11">
    <text x="40" y="372" fill="#9aa3b2">last_run_at</text>
    <text x="240" y="372" fill="#e7ebf0">3 s ago</text>
    <text x="40" y="394" fill="#9aa3b2">next_run_in</text>
    <text x="240" y="394" fill="#e7ebf0">7 s</text>
    <text x="40" y="416" fill="#9aa3b2">last_ingested</text>
    <text x="240" y="416" fill="#e7ebf0">3 new</text>
    <text x="40" y="438" fill="#9aa3b2">total_ingested</text>
    <text x="240" y="438" fill="#e7ebf0">2,841</text>
    <text x="40" y="460" fill="#9aa3b2">empty_ticks</text>
    <text x="240" y="460" fill="#e7ebf0">0 in a row</text>
    <text x="40" y="482" fill="#9aa3b2">last_new_arrival</text>
    <text x="240" y="482" fill="#e7ebf0">3 s ago</text>
    <text x="40" y="504" fill="#9aa3b2">publisher_lag · median</text>
    <text x="240" y="504" fill="#e7ebf0">11 min</text>
    <text x="40" y="526" fill="#9aa3b2">publisher_lag · avg</text>
    <text x="240" y="526" fill="#e7ebf0">14 min</text>
    <text x="40" y="548" fill="#9aa3b2">stale_skipped · last tick</text>
    <text x="240" y="548" fill="#e7ebf0">0</text>
  </g>

  <!-- Feed health summary -->
  <text x="320" y="372" fill="#9aa3b2" font-size="10">FEED HEALTH</text>
  <g font-size="11">
    <text x="320" y="394" fill="#9aa3b2">healthy</text>
    <text x="600" y="394" fill="#4ade80" text-anchor="end">47</text>

    <text x="320" y="416" fill="#9aa3b2">degraded</text>
    <text x="600" y="416" fill="#fbbf24" text-anchor="end">1</text>

    <text x="320" y="438" fill="#9aa3b2">failing</text>
    <text x="600" y="438" fill="#f87171" text-anchor="end">1</text>

    <line x1="320" y1="448" x2="600" y2="448" stroke="rgba(255,255,255,0.06)"/>

    <text x="320" y="470" fill="#9aa3b2">cnbc-business</text>
    <text x="600" y="470" fill="#fbbf24" text-anchor="end" font-size="9">429 · 3 consecutive</text>
    <text x="320" y="492" fill="#9aa3b2">aljazeera</text>
    <text x="600" y="492" fill="#f87171" text-anchor="end" font-size="9">connect_timeout · 12</text>
  </g>

  <rect x="320" y="538" width="120" height="28" rx="6" fill="#0e1014" stroke="rgba(255,255,255,0.1)"/>
  <text x="380" y="557" fill="#e7ebf0" font-size="11" text-anchor="middle">Poll now</text>
  <text x="320" y="588" fill="#9aa3b2" font-size="9">forces an immediate tick · won't violate rate limits</text>

  <!-- Log tail -->
  <rect x="656" y="320" width="600" height="306" rx="8" fill="#161a22" stroke="rgba(255,255,255,0.06)"/>
  <text x="672" y="344" fill="#9aa3b2" font-size="10">LOG TAIL · ~/Library/Logs/Catchem/sidecar.log</text>
  <rect x="672" y="356" width="568" height="254" rx="6" fill="#0e1014" stroke="rgba(255,255,255,0.06)"/>
  <g font-family="ui-monospace, 'SF Mono', Menlo, monospace" font-size="9.5" fill="#9aa3b2">
    <text x="684" y="376">12:47:18 INFO  catchem boot: python=Library/.../python cwd=Application Support/Catchem release=true</text>
    <text x="684" y="392">12:47:19 INFO  sidecar spawned pid=4127 log=~/Library/Logs/Catchem/sidecar.log</text>
    <text x="684" y="408">12:47:21 INFO  storage_initialized db=~/Library/Application Support/Catchem/data/db/fusion.sqlite</text>
    <text x="684" y="424">12:47:22 INFO  news_poller_started feeds=49 interval=10s</text>
    <text x="684" y="440">12:47:22 INFO  fusion service ready · mode=production_safe · stubs=true</text>
    <text x="684" y="456">12:47:23 INFO  sidecar healthy in 487ms</text>
    <text x="684" y="472" fill="#e7ebf0">12:47:30 INFO  news_poll_ingested count=3 fresh_count=3 avg_pub_lag=614s median_pub_lag=601s</text>
    <text x="684" y="488">12:47:40 INFO  news_poll_ingested count=2 fresh_count=2 avg_pub_lag=720s</text>
    <text x="684" y="504" fill="#fbbf24">12:47:51 INFO  rss_non200 feed=cnbc-business status=429</text>
    <text x="684" y="520">12:48:00 INFO  news_poll_ingested count=4 fresh_count=4 avg_pub_lag=812s</text>
    <text x="684" y="536" fill="#f87171">12:48:11 INFO  rss_fetch_error feed=aljazeera error=ConnectTimeout</text>
    <text x="684" y="552">12:48:20 INFO  news_poll_ingested count=1 fresh_count=1 avg_pub_lag=1024s</text>
    <text x="684" y="568">12:48:30 INFO  news_poll_ingested count=3 fresh_count=3 avg_pub_lag=798s</text>
    <text x="684" y="584">12:48:40 INFO  news_poll_ingested count=0 fresh_count=0</text>
    <text x="684" y="600">12:48:50 INFO  news_poll_ingested count=2 fresh_count=2 avg_pub_lag=701s</text>
  </g>

  <rect x="672" y="618" width="118" height="24" rx="4" fill="#0e1014" stroke="rgba(255,255,255,0.1)"/>
  <text x="731" y="635" fill="#e7ebf0" font-size="10" text-anchor="middle">Refresh tail</text>
  <rect x="798" y="618" width="160" height="24" rx="4" fill="#0e1014" stroke="rgba(255,255,255,0.1)"/>
  <text x="878" y="635" fill="#e7ebf0" font-size="10" text-anchor="middle">Reveal in Finder</text>

  <!-- ─── Bottom: build info row ────────────────────────────────────────── -->
  <rect x="24" y="646" width="1232" height="138" rx="8" fill="#161a22" stroke="rgba(255,255,255,0.06)"/>
  <text x="40" y="670" fill="#9aa3b2" font-size="10">BUILD &amp; PATHS</text>
  <g font-size="11">
    <text x="40" y="694" fill="#9aa3b2">commit</text>
    <text x="180" y="694" fill="#e7ebf0">b01d80f (feature/catchem-hardening)</text>

    <text x="40" y="716" fill="#9aa3b2">app_data_dir</text>
    <text x="180" y="716" fill="#e7ebf0">~/Library/Application Support/Catchem/</text>

    <text x="40" y="738" fill="#9aa3b2">fusion_output_dir</text>
    <text x="180" y="738" fill="#e7ebf0">~/Library/Application Support/Catchem/data/</text>

    <text x="40" y="760" fill="#9aa3b2">awareness_data_dir</text>
    <text x="180" y="760" fill="#e7ebf0">~/Library/Application Support/Catchem/awareness-data/</text>

    <text x="640" y="694" fill="#9aa3b2">static_bundle_present</text>
    <text x="820" y="694" fill="#4ade80">true</text>

    <text x="640" y="716" fill="#9aa3b2">use_ml_stubs</text>
    <text x="820" y="716" fill="#e7ebf0">true</text>

    <text x="640" y="738" fill="#9aa3b2">diagnostic_allowed</text>
    <text x="820" y="738" fill="#f87171">false</text>

    <text x="640" y="760" fill="#9aa3b2">CSP origin</text>
    <text x="820" y="760" fill="#e7ebf0">127.0.0.1:8087 + ipc:</text>
  </g>

  <!-- Status bar -->
  <rect x="0" y="794" width="1280" height="26" fill="#161a22"/>
  <line x1="0" y1="794" x2="1280" y2="794" stroke="rgba(255,255,255,0.06)"/>
  <text x="24" y="810" fill="#9aa3b2" font-size="9">sidecar healthy · :8087 · 2h 41min uptime</text>
  <text x="1140" y="810" fill="#9aa3b2" font-size="9" text-anchor="end">release_mode=true · stubs=on</text>
</svg>
